<?xml version="1.0" encoding="UTF-8" standalone="no"?>
<!-- Created with Inkscape (http://www.inkscape.org/) -->

<svg
   width="312.62717mm"
   height="63.495728mm"
   viewBox="0 0 312.62717 63.495728"
   version="1.1"
   id="svg5"
   sodipodi:docname="paper_logo.svg"
   inkscape:version="1.1 (c68e22c387, 2021-05-23)"
   xmlns:inkscape="http://www.inkscape.org/namespaces/inkscape"
   xmlns:sodipodi="http://sodipodi.sourceforge.net/DTD/sodipodi-0.dtd"
   xmlns="http://www.w3.org/2000/svg"
   xmlns:svg="http://www.w3.org/2000/svg">
  <sodipodi:namedview
     id="namedview7"
     pagecolor="#ffffff"
     bordercolor="#666666"
     borderopacity="1.0"
     inkscape:pageshadow="2"
     inkscape:pageopacity="0.0"
     inkscape:pagecheckerboard="0"
     inkscape:document-units="mm"
     showgrid="false"
     inkscape:zoom="0.38395763"
     inkscape:cx="621.16229"
     inkscape:cy="238.30754"
     inkscape:window-width="1482"
     inkscape:window-height="1091"
     inkscape:window-x="363"
     inkscape:window-y="258"
     inkscape:window-maximized="0"
     inkscape:current-layer="text6679"
     width="400mm"
     showguides="false" />
  <defs
     id="defs2" />
  <g
     inkscape:label="Layer 1"
     inkscape:groupmode="layer"
     id="layer1"
     transform="translate(-22.395543,-41.260681)">
    <g
       aria-label="PAPEREDI"
       id="text6679"
       style="font-weight:900;font-size:64.4796px;line-height:1.25;font-family:Montserrat;-inkscape-font-specification:'Montserrat Heavy';letter-spacing:-1.32292px;fill:#3273dc;stroke-width:0.335831"
       inkscape:export-filename="C:\Users\Louis\Desktop\median\assets\path27753.png"
       inkscape:export-xdpi="96"
       inkscape:export-ydpi="96">
      <g
         aria-label="edicate
"
         id="text2468-1-3-0-2-9"
         style="font-size:63.8002px;stroke-width:0.111594">
        <path
           d="m 139.31038,81.328965 q 0,0.829403 -0.1276,2.360608 H 112.4505 q 0.7018,3.764211 3.63661,5.997219 2.99861,2.169206 7.40082,2.169206 5.61442,0 9.25103,-3.700411 l 4.27461,4.912615 q -2.2968,2.743409 -5.80581,4.147013 -3.50902,1.403605 -7.91123,1.403605 -5.61442,0 -9.88903,-2.233007 -4.27461,-2.233007 -6.63522,-6.18862 -2.29681,-4.019413 -2.29681,-9.059628 0,-4.976416 2.23301,-8.932029 2.29681,-4.019412 6.31622,-6.252419 4.01941,-2.233007 9.05963,-2.233007 4.97641,0 8.86822,2.233007 3.95562,2.169206 6.12482,6.188619 2.23301,3.955613 2.23301,9.187229 z M 122.08433,70.10013 q -3.82802,0 -6.50762,2.296807 -2.61581,2.233007 -3.19001,5.997219 h 19.33146 q -0.5104,-3.700412 -3.12621,-5.997219 -2.61581,-2.296807 -6.50762,-2.296807 z"
           style="font-weight:600;-inkscape-font-specification:'Montserrat Semi-Bold'"
           id="path36454" />
        <path
           d="m 179.01097,50.832469 v 47.339749 h -7.65602 v -4.402214 q -1.97781,2.424408 -4.91262,3.636612 -2.87101,1.212204 -6.38002,1.212204 -4.91261,0 -8.86823,-2.169207 -3.89181,-2.169207 -6.12482,-6.124819 -2.233,-4.019413 -2.233,-9.187229 0,-5.167817 2.233,-9.123429 2.23301,-3.955613 6.12482,-6.12482 3.95562,-2.169206 8.86823,-2.169206 3.38141,0 6.18862,1.148403 2.80721,1.148404 4.78502,3.445211 V 50.832469 Z m -17.99165,40.959729 q 2.871,0 5.16781,-1.276004 2.29681,-1.339804 3.63661,-3.764212 1.33981,-2.424407 1.33981,-5.614417 0,-3.190011 -1.33981,-5.614418 -1.3398,-2.424408 -3.63661,-3.700412 -2.29681,-1.339804 -5.16781,-1.339804 -2.87101,0 -5.16782,1.339804 -2.29681,1.276004 -3.63661,3.700412 -1.33981,2.424407 -1.33981,5.614418 0,3.19001 1.33981,5.614417 1.3398,2.424408 3.63661,3.764212 2.29681,1.276004 5.16782,1.276004 z"
           style="font-weight:600;-inkscape-font-specification:'Montserrat Semi-Bold'"
           id="path36456" />
        <path
           d="m 188.15118,64.102911 h 7.97502 v 34.069307 h -7.97502 z m 4.01941,-5.614418 q -2.1692,0 -3.63661,-1.339804 -1.4674,-1.403605 -1.4674,-3.445211 0,-2.041607 1.4674,-3.381411 1.46741,-1.403604 3.63661,-1.403604 2.16921,0 3.63661,1.339804 1.46741,1.276004 1.46741,3.25381 0,2.105407 -1.46741,3.572812 -1.4036,1.403604 -3.63661,1.403604 z"
           style="font-weight:600;-inkscape-font-specification:'Montserrat Semi-Bold'"
           id="path36458" />
        <path
           d="m 220.89754,98.61882 q -5.29542,0 -9.50623,-2.233007 -4.21081,-2.233007 -6.57142,-6.18862 -2.36061,-4.019413 -2.36061,-9.059628 0,-5.040216 2.36061,-8.995829 2.36061,-3.955612 6.50762,-6.188619 4.21081,-2.233007 9.57003,-2.233007 5.04022,0 8.80443,2.041606 3.82801,2.041606 5.74202,5.869619 l -6.12482,3.572811 q -1.46741,-2.360608 -3.70042,-3.509011 -2.1692,-1.212204 -4.78501,-1.212204 -4.46601,0 -7.40082,2.934809 -2.93481,2.871009 -2.93481,7.719825 0,4.848815 2.87101,7.783624 2.93481,2.871009 7.46462,2.871009 2.61581,0 4.78501,-1.148403 2.23301,-1.212204 3.70042,-3.572812 l 6.12482,3.572812 q -1.97781,3.828012 -5.80582,5.933418 -3.76421,2.041607 -8.74063,2.041607 z"
           style="font-weight:600;-inkscape-font-specification:'Montserrat Semi-Bold'"
           id="path36460" />
        <path
           d="m 254.0267,63.72011 q 7.52842,0 11.48403,3.636611 4.01942,3.572811 4.01942,10.846034 v 19.969463 h -7.52843 v -4.147013 q -1.4674,2.233007 -4.21081,3.445211 -2.67961,1.148404 -6.50762,1.148404 -3.82801,0 -6.69902,-1.276004 -2.87101,-1.339805 -4.46602,-3.636612 -1.5312,-2.360607 -1.5312,-5.295416 0,-4.593615 3.38141,-7.337024 3.44521,-2.807209 10.78223,-2.807209 h 8.80443 v -0.510401 q 0,-3.572811 -2.16921,-5.486817 -2.1054,-1.914006 -6.31622,-1.914006 -2.87101,0 -5.67821,0.893202 -2.74341,0.893203 -4.65742,2.488208 l -3.12621,-5.805818 q 2.67961,-2.041607 6.44382,-3.12621 3.76421,-1.084603 7.97503,-1.084603 z m -1.08461,29.092891 q 2.99861,0 5.29542,-1.339804 2.36061,-1.403604 3.31761,-3.955612 v -3.955613 h -8.23023 q -6.89042,0 -6.89042,4.529814 0,2.169207 1.72261,3.445211 1.7226,1.276004 4.78501,1.276004 z"
           style="font-weight:600;-inkscape-font-specification:'Montserrat Semi-Bold'"
           id="path36462" />
        <path
           d="m 298.89502,96.322012 q -1.4036,1.148404 -3.44521,1.722606 -1.97781,0.574202 -4.21081,0.574202 -5.61442,0 -8.67683,-2.93481 -3.06241,-2.934809 -3.06241,-8.549227 V 70.738132 h -5.61442 v -6.38002 h 5.61442 v -7.783625 h 7.97503 v 7.783625 h 9.12342 v 6.38002 h -9.12342 v 16.205251 q 0,2.488208 1.2122,3.828012 1.2122,1.276004 3.50901,1.276004 2.67961,0 4.46601,-1.403604 z"
           style="font-weight:600;-inkscape-font-specification:'Montserrat Semi-Bold'"
           id="path36464" />
        <path
           d="m 335.02271,81.328965 q 0,0.829403 -0.1276,2.360608 h -26.73229 q 0.7018,3.764211 3.63661,5.997219 2.99861,2.169206 7.40083,2.169206 5.61441,0 9.25103,-3.700411 l 4.27461,4.912615 q -2.29681,2.743409 -5.80582,4.147013 -3.50901,1.403605 -7.91122,1.403605 -5.61442,0 -9.88903,-2.233007 -4.27462,-2.233007 -6.63523,-6.18862 -2.2968,-4.019413 -2.2968,-9.059628 0,-4.976416 2.233,-8.932029 2.29681,-4.019412 6.31622,-6.252419 4.01942,-2.233007 9.05963,-2.233007 4.97642,0 8.86823,2.233007 3.95561,2.169206 6.12482,6.188619 2.23301,3.955613 2.23301,9.187229 z M 317.79665,70.10013 q -3.82801,0 -6.50762,2.296807 -2.61581,2.233007 -3.19001,5.997219 h 19.33146 q -0.5104,-3.700412 -3.12621,-5.997219 -2.6158,-2.296807 -6.50762,-2.296807 z"
           style="font-weight:600;-inkscape-font-specification:'Montserrat Semi-Bold'"
           id="path36466" />
      </g>
    </g>
    <path
       style="fill:#3273dc;fill-opacity:1;stroke:none;stroke-width:0.264583px;stroke-linecap:butt;stroke-linejoin:miter;stroke-opacity:1"
       d="m 22.39559,56.066006 v 16.445155 l -10e-7,14.983363 c 0.159118,17.604866 -0.800844,17.247536 16.013736,17.254886 l 15.836951,0.007 7.895757,-24.191557 23.71909,-6.890951 -0.02632,-17.485839 C 85.879978,40.957976 85.441031,41.255749 70.203045,41.277567 l -16.322607,0.02337 -16.202188,0.0232 C 22.253026,41.056343 22.39559,40.950148 22.39559,56.066006 Z"
       id="path20991"
       sodipodi:nodetypes="cccccccccccc"
       inkscape:export-filename="C:\Users\Louis\Desktop\median\assets\path27753.png"
       inkscape:export-xdpi="96"
       inkscape:export-ydpi="96" />
    <path
       id="path1998-5"
       style="fill:#00d1b2;fill-opacity:1;stroke:none;stroke-width:0.10935;stroke-linejoin:round;stroke-opacity:1"
       d="m 65.756833,73.673603 h 20.104289 l -31.614847,31.082507 0.03867,-20.976787 c 0.245546,-10.514872 0.862873,-10.10572 11.471888,-10.10572 z"
       sodipodi:nodetypes="ccccc"
       inkscape:transform-center-y="5.01546"
       inkscape:export-filename="C:\Users\Louis\Desktop\median\assets\path27753.png"
       inkscape:export-xdpi="96"
       inkscape:export-ydpi="96" />
    <path
       sodipodi:type="star"
       style="fill:#ffffff;fill-opacity:1;stroke:none;stroke-width:0.5;stroke-linejoin:round"
       id="path26715"
       inkscape:flatsided="false"
       sodipodi:sides="5"
       sodipodi:cx="-139.04285"
       sodipodi:cy="-80.110779"
       sodipodi:r1="44.924473"
       sodipodi:r2="16.640167"
       sodipodi:arg1="1.1484097"
       sodipodi:arg2="1.7767282"
       inkscape:rounded="0"
       inkscape:randomized="0"
       d="m -120.62658,-39.134576 -21.81884,-24.687628 -29.87717,13.888683 16.73694,-28.37985 -22.44148,-24.123039 32.16284,7.147916 16.00758,-28.797546 3.14079,32.797509 32.334699,6.325181 -30.221719,13.122056 z"
       transform="matrix(0.25118146,0,0,0.25118146,73.140496,96.356145)"
       inkscape:transform-center-x="0.73424831"
       inkscape:transform-center-y="0.5700733"
       inkscape:export-filename="C:\Users\Louis\Desktop\median\assets\path27753.png"
       inkscape:export-xdpi="96"
       inkscape:export-ydpi="96" />
    <ellipse
       style="fill:#ffffff;fill-opacity:1;stroke:none;stroke-width:0.192114;stroke-linejoin:round"
       id="path27337"
       cx="57.209824"
       cy="53.895508"
       rx="8.0056639"
       ry="8.5060177"
       inkscape:export-filename="C:\Users\Louis\Desktop\median\assets\path27753.png"
       inkscape:export-xdpi="96"
       inkscape:export-ydpi="96" />
    <path
       sodipodi:type="star"
       style="fill:#ffffff;fill-opacity:1;stroke:none;stroke-width:0.5;stroke-linejoin:round"
       id="path27753"
       inkscape:flatsided="true"
       sodipodi:sides="3"
       sodipodi:cx="66.005699"
       sodipodi:cy="68.661278"
       sodipodi:r1="39.45039"
       sodipodi:r2="19.725195"
       sodipodi:arg1="2.0211518"
       sodipodi:arg2="3.0683494"
       inkscape:rounded="0"
       inkscape:randomized="0"
       d="M 48.833513,104.17817 43.833266,36.031285 105.35032,65.774384 Z"
       transform="matrix(0.25908987,0,0,0.25908987,16.463874,37.066981)"
       inkscape:transform-center-x="1.7408995"
       inkscape:transform-center-y="-0.33702522"
       inkscape:export-filename="C:\Users\Louis\Desktop\median\assets\path27753.png"
       inkscape:export-xdpi="96"
       inkscape:export-ydpi="96" />
  </g>
</svg>
