<?xml version="1.0" encoding="UTF-8" standalone="no"?>
<!-- Created with Inkscape (http://www.inkscape.org/) -->

<svg
   width="98.221642mm"
   height="25.91831mm"
   viewBox="0 0 98.221642 25.91831"
   version="1.1"
   id="svg5"
   inkscape:version="1.1 (c68e22c387, 2021-05-23)"
   sodipodi:docname="median.svg"
   xmlns:inkscape="http://www.inkscape.org/namespaces/inkscape"
   xmlns:sodipodi="http://sodipodi.sourceforge.net/DTD/sodipodi-0.dtd"
   xmlns="http://www.w3.org/2000/svg"
   xmlns:svg="http://www.w3.org/2000/svg">
  <sodipodi:namedview
     id="namedview7"
     pagecolor="#ffffff"
     bordercolor="#666666"
     borderopacity="1.0"
     inkscape:pageshadow="2"
     inkscape:pageopacity="0.0"
     inkscape:pagecheckerboard="0"
     inkscape:document-units="mm"
     showgrid="false"
     inkscape:zoom="0.90509668"
     inkscape:cx="211.57961"
     inkscape:cy="130.92524"
     inkscape:window-width="1482"
     inkscape:window-height="1091"
     inkscape:window-x="293"
     inkscape:window-y="152"
     inkscape:window-maximized="0"
     inkscape:current-layer="layer1" />
  <defs
     id="defs2" />
  <g
     inkscape:label="Layer 1"
     inkscape:groupmode="layer"
     id="layer1"
     transform="translate(-40.943476,-80.850177)">
    <text
       xml:space="preserve"
       style="font-size:10.5833px;line-height:1.25;font-family:'Montserrat Alternates';-inkscape-font-specification:'Montserrat Alternates';stroke-width:0.264583"
       x="47.547565"
       y="84.069603"
       id="text2607"><tspan
         sodipodi:role="line"
         id="tspan2605"
         style="stroke-width:0.264583"
         x="47.547565"
         y="84.069603" /></text>
    <g
       aria-label="median"
       id="text9591"
       style="font-size:25.4px;line-height:1.25;font-family:'Montserrat Alternates';-inkscape-font-specification:'Montserrat Alternates';stroke-width:0.264583">
      <path
         d="m 58.063076,86.742977 c -2.159,0 -3.9878,0.8636 -5.08,2.2606 -0.9398,-1.524 -2.5908,-2.2606 -4.572,-2.2606 -1.8542,0 -3.429,0.6604 -4.445,1.8796 v -1.7272 h -3.0226 v 13.563603 h 3.175 v -6.883403 c 0,-2.6924 1.4224,-4.064 3.5306,-4.064 1.9304,0 3.048,1.1684 3.048,3.5814 v 7.366003 h 3.175 v -6.883403 c 0,-2.6924 1.4478,-4.064 3.5306,-4.064 1.9304,0 3.047999,1.1684 3.047999,3.5814 v 7.366003 h 3.175 v -7.772403 c 0,-4.0894 -2.286,-5.9436 -5.562599,-5.9436 z"
         id="path4373" />
      <path
         d="m 74.268241,97.944377 c -1.9812,0 -3.4544,-0.8382 -4.1148,-2.3876 l 10.3886,-2.032 c -0.0254,-4.2418 -3.0734,-6.7818 -6.858,-6.7818 -4.0386,0 -6.985,2.8956 -6.985,6.9342 0,4.0386 2.9464,6.959603 7.493,6.959603 2.3368,0 4.2418,-0.762003 5.4356,-2.209803 l -1.6764,-1.9558 c -0.9906,0.9906 -2.159,1.4732 -3.683,1.4732 z m -0.5842,-8.6614 c 1.905,0 3.3274,1.1176 3.7592,2.7686 l -7.6708,1.4732 v -0.0254 c 0,-2.5908 1.6002,-4.2164 3.9116,-4.2164 z"
         id="path4375" />
      <path
         d="m 93.699198,81.612177 v 6.9596 c -1.0668,-1.2446 -2.6162,-1.8288 -4.3688,-1.8288 -3.937,0 -6.858,2.7178 -6.858,6.9342 0,4.2164 2.921,6.959603 6.858,6.959603 1.8542,0 3.429,-0.635 4.4958,-1.930403 v 1.752603 h 3.048 V 81.612177 Z m -3.9878,16.3068 c -2.286,0 -4.0386,-1.651 -4.0386,-4.2418 0,-2.5908 1.7526,-4.2418 4.0386,-4.2418 2.286,0 4.0386,1.651 4.0386,4.2418 0,2.5908 -1.7526,4.2418 -4.0386,4.2418 z"
         id="path4377" />
      <path
         d="m 102.63996,84.660177 c 1.1938,0 2.032,-0.8636 2.032,-1.9812 0,-1.0414 -0.8636,-1.8288 -2.032,-1.8288 -1.1684,0 -2.032,0.8382 -2.032,1.905 0,1.0668 0.8636,1.905 2.032,1.905 z m -1.6002,15.798803 h 3.175 V 86.895377 h -3.175 z"
         id="path4379" />
      <path
         d="m 118.46415,86.895377 v 1.651 c -1.0922,-1.2192 -2.6162,-1.8034 -4.3434,-1.8034 -3.9624,0 -6.858,2.7178 -6.858,6.9342 0,4.2164 2.8956,6.959603 6.858,6.959603 1.8542,0 3.429,-0.635 4.4958,-1.930403 v 1.752603 h 3.0226 V 86.895377 Z m -3.9878,11.0236 c -2.286,0 -4.0132,-1.651 -4.0132,-4.2418 0,-2.5908 1.7272,-4.2418 4.0132,-4.2418 2.3114,0 4.0386,1.651 4.0386,4.2418 0,2.5908 -1.7272,4.2418 -4.0386,4.2418 z"
         id="path4381" />
      <path
         d="m 133.50092,86.742977 c -1.9812,0 -3.6322,0.6604 -4.6736,1.905 v -1.7526 h -3.0226 v 13.563603 h 3.175 v -6.858003 c 0,-2.7178 1.524,-4.0894 3.7846,-4.0894 2.032,0 3.2258,1.1684 3.2258,3.5814 v 7.366003 h 3.175 v -7.772403 c 0,-4.0894 -2.413,-5.9436 -5.6642,-5.9436 z"
         id="path4383" />
    </g>
    <rect
       id="rect10193"
       width="36.145267"
       height="3.1700001"
       x="68.068962"
       y="103.59849"
       style="stroke-width:0.634504" />
  </g>
</svg>
