<?xml version="1.0" encoding="UTF-8" standalone="no"?>
<!-- Created with Inkscape (http://www.inkscape.org/) -->

<svg
   width="376.05902mm"
   height="63.739613mm"
   viewBox="0 0 376.05902 63.739613"
   version="1.1"
   id="svg5"
   sodipodi:docname="paper_logo.svg"
   inkscape:version="1.1 (c68e22c387, 2021-05-23)"
   xmlns:inkscape="http://www.inkscape.org/namespaces/inkscape"
   xmlns:sodipodi="http://sodipodi.sourceforge.net/DTD/sodipodi-0.dtd"
   xmlns="http://www.w3.org/2000/svg"
   xmlns:svg="http://www.w3.org/2000/svg">
  <sodipodi:namedview
     id="namedview7"
     pagecolor="#ffffff"
     bordercolor="#666666"
     borderopacity="1.0"
     inkscape:pageshadow="2"
     inkscape:pageopacity="0.0"
     inkscape:pagecheckerboard="0"
     inkscape:document-units="mm"
     showgrid="false"
     inkscape:zoom="0.38395763"
     inkscape:cx="690.18032"
     inkscape:cy="82.040302"
     inkscape:window-width="1482"
     inkscape:window-height="1091"
     inkscape:window-x="427"
     inkscape:window-y="187"
     inkscape:window-maximized="0"
     inkscape:current-layer="text6679"
     width="400mm" />
  <defs
     id="defs2" />
  <g
     inkscape:label="Layer 1"
     inkscape:groupmode="layer"
     id="layer1"
     transform="translate(-22.329443,-41.082643)">
    <path
       id="rect868"
       style="fill:#3273dc;fill-opacity:1;stroke:#000000;stroke-width:0.132292;stroke-linejoin:round"
       d="m 22.39559,41.345707 h 31.690696 c 34.227747,-2.541143 31.74889,20.133461 31.774835,32.327896 l -31.614847,31.082507 -31.850685,-0.0137 z"
       sodipodi:nodetypes="cccccc" />
    <path
       id="path1998-5"
       style="fill:#00d1b2;fill-opacity:1;stroke:none;stroke-width:0.10935;stroke-linejoin:round;stroke-opacity:1"
       d="M 54.303575,73.673603 H 85.861122 L 54.246275,104.75611 Z"
       sodipodi:nodetypes="cccc"
       inkscape:transform-center-y="5.01546" />
    <g
       aria-label="PAPEREDI"
       id="text6679"
       style="font-weight:900;font-size:64.4796px;line-height:1.25;font-family:Montserrat;-inkscape-font-specification:'Montserrat Heavy';letter-spacing:-1.32292px;fill:#3273dc;stroke-width:0.335831">
      <path
         d="m 126.20061,50.153931 q 6.25452,0 10.89705,2.063347 4.64253,2.063347 7.15724,5.932123 2.5147,3.868776 2.5147,9.027144 0,5.158368 -2.5147,9.027144 -2.51471,3.868776 -7.15724,5.932123 -4.64253,2.063347 -10.89705,2.063347 h -6.51244 V 95.28965 H 104.47098 V 50.153931 Z m -0.9672,22.309941 q 3.09503,0 4.64254,-1.354072 1.54751,-1.418551 1.54751,-3.933255 0,-2.514705 -1.54751,-3.868776 -1.54751,-1.418551 -4.64254,-1.418551 h -5.54524 v 10.574654 z"
         style="font-weight:bold;-inkscape-font-specification:'Montserrat Semi-Bold'"
         id="path38830" />
      <path
         d="m 178.91146,87.423139 h -17.15157 l -3.03054,7.866511 h -15.4751 L 162.985,50.153931 h 14.95927 l 19.73076,45.135719 h -15.73302 z m -4.19117,-10.961532 -4.38461,-11.348409 -4.38461,11.348409 z"
         style="font-weight:bold;-inkscape-font-specification:'Montserrat Semi-Bold'"
         id="path38832" />
      <path
         d="m 220.53195,50.153931 q 6.25452,0 10.89705,2.063347 4.64253,2.063347 7.15723,5.932123 2.51471,3.868776 2.51471,9.027144 0,5.158368 -2.51471,9.027144 -2.5147,3.868776 -7.15723,5.932123 -4.64253,2.063347 -10.89705,2.063347 h -6.51244 V 95.28965 H 198.80232 V 50.153931 Z m -0.9672,22.309941 q 3.09502,0 4.64253,-1.354072 1.54751,-1.418551 1.54751,-3.933255 0,-2.514705 -1.54751,-3.868776 -1.54751,-1.418551 -4.64253,-1.418551 h -5.54524 v 10.574654 z"
         style="font-weight:bold;-inkscape-font-specification:'Montserrat Semi-Bold'"
         id="path38834" />
      <path
         d="M 282.26993,83.812281 V 95.28965 H 244.7428 V 50.153931 h 36.6889 v 11.477368 h -21.72963 v 5.287327 h 19.08596 v 10.961532 h -19.08596 v 5.932123 z"
         style="font-weight:bold;-inkscape-font-specification:'Montserrat Semi-Bold'"
         id="path38836" />
      <path
         d="m 306.15843,83.941241 h -4.12669 V 95.28965 H 286.81455 V 50.153931 h 21.72963 q 6.25452,0 10.89705,2.063347 4.64253,2.063347 7.15723,5.932123 2.51471,3.868776 2.51471,9.027144 0,4.83597 -2.19231,8.446827 -2.19231,3.610858 -6.319,5.738685 l 9.4785,13.927593 H 313.8315 Z m 7.60859,-16.764696 q 0,-2.514705 -1.54751,-3.868776 -1.54751,-1.418551 -4.64253,-1.418551 h -5.54524 v 10.574654 h 5.54524 q 3.09502,0 4.64253,-1.354072 1.54751,-1.418551 1.54751,-3.933255 z"
         style="font-weight:bold;-inkscape-font-specification:'Montserrat Semi-Bold'"
         id="path38838" />
      <path
         d="M 361.71803,89.419547 V 95.28965 H 342.52477 V 72.204975 h 18.76454 v 5.870103 h -11.11362 v 2.704205 h 9.76152 v 5.606278 h -9.76152 v 3.033986 z"
         style="font-weight:bold;-inkscape-font-specification:'Montserrat Semi-Bold';fill:#00d1b2;fill-opacity:1;stroke-width:0.171761"
         id="path38840" />
      <path
         d="m 364.04237,72.204975 h 11.37745 q 3.85844,0 6.79349,1.418058 2.96803,1.385081 4.58396,3.990352 1.6489,2.60527 1.6489,6.133927 0,3.528658 -1.6489,6.133929 -1.61593,2.60527 -4.58396,4.023329 -2.93505,1.38508 -6.79349,1.38508 h -11.37745 z m 11.04767,17.016703 q 2.50634,0 3.99035,-1.418058 1.51699,-1.451037 1.51699,-4.056308 0,-2.60527 -1.51699,-4.023329 -1.48401,-1.451036 -3.99035,-1.451036 h -3.26483 v 10.948731 z"
         style="font-weight:bold;-inkscape-font-specification:'Montserrat Semi-Bold';fill:#00d1b2;fill-opacity:1;stroke-width:0.171761"
         id="path38842" />
      <path
         d="m 390.60562,72.204975 h 7.78283 V 95.28965 h -7.78283 z"
         style="font-weight:bold;-inkscape-font-specification:'Montserrat Semi-Bold';fill:#00d1b2;fill-opacity:1;stroke-width:0.171761"
         id="path38844" />
    </g>
  </g>
</svg>
